<?xml version="1.0" encoding="utf-8"?>
<!-- Generator: Adobe Illustrator 26.1.0, SVG Export Plug-In . SVG Version: 6.00 Build 0)  -->
<svg version="1.1" id="Layer_1" xmlns="http://www.w3.org/2000/svg" xmlns:xlink="http://www.w3.org/1999/xlink" x="0px" y="0px"
	 viewBox="0 0 20 15" style="enable-background:new 0 0 20 15;" xml:space="preserve">
<style type="text/css">
	.st0{fill:#5D66B1;}
</style>
<g id="a">
</g>
<g id="b">
	<g id="c">
		<path class="st0" d="M4,1.8c0.4,0,0.8,0.3,0.8,0.8S4.4,3.2,4,3.2S3.2,2.9,3.2,2.5S3.6,1.8,4,1.8z M5,4.8c0.9-0.4,1.5-1.3,1.5-2.3
			C6.5,1.1,5.4,0,4,0S1.5,1.1,1.5,2.5c0,1,0.6,1.9,1.5,2.3v1.7H1c-0.6,0-1,0.4-1,1s0.4,1,1,1h8v1.7c-0.9,0.4-1.5,1.3-1.5,2.3
			c0,1.4,1.1,2.5,2.5,2.5s2.5-1.1,2.5-2.5c0-1-0.6-1.9-1.5-2.3V8.5h8c0.5,0,1-0.4,1-1s-0.5-1-1-1h-2V4.8c0.9-0.4,1.5-1.3,1.5-2.3
			C18.5,1.1,17.4,0,16,0s-2.5,1.1-2.5,2.5c0,1,0.6,1.9,1.5,2.3v1.7H5V4.8z M15.2,2.5c0-0.4,0.3-0.8,0.8-0.8s0.8,0.3,0.8,0.8
			S16.4,3.2,16,3.2S15.2,2.9,15.2,2.5z M10,11.8c0.4,0,0.8,0.3,0.8,0.8s-0.3,0.8-0.8,0.8s-0.8-0.3-0.8-0.8S9.6,11.8,10,11.8z"/>
	</g>
</g>
</svg>
