<?xml version="1.0" encoding="UTF-8"?><svg xmlns="http://www.w3.org/2000/svg" viewBox="0 0 9.68 14.93"><defs><style>.d{fill:#5d66b1;}</style></defs><g id="a"/><g id="b"><g id="c"><path class="d" d="M9.4,7.3L1.42,.21C1.17,0,.81-.06,.5,.07,.2,.21,0,.51,0,.85V11.52c0,.33,.18,.63,.48,.77,.12,.06,.24,.08,.37,.08,.19,0,.38-.06,.53-.19l2.66-2.15,1.97,4.39c.14,.31,.45,.5,.78,.5,.12,0,.24-.02,.35-.08,.43-.19,.62-.7,.43-1.12l-1.97-4.39,3.38-.56c.32-.05,.59-.29,.68-.6,.09-.31,0-.65-.25-.87Zm-5.17,.54s-.05,.03-.07,.03c-.05,.01-.09,.01-.14,.03-.04,.02-.08,.06-.12,.08-.02,.01-.05,.02-.07,.03l-2.14,1.72V2.74L6.94,7.39l-2.71,.45Z"/></g></g></svg>